# xmcd
#
# Track frame offsets:
#	150
#	13500
#	28085
#	45878
#	55910
#	70175
#	82960
#	95615
#	112668
#	125750
#	138910
#	153698
#
# Disc length: 2257 seconds
#
# Revision: 0
# Processed by: cddbd v1.5.2PL0 Copyright (c) Steve Scherf et al.
# Submitted via: audiograbber 1.83.01
#
DISCID=9308cf0c
DTITLE=Doc and Merle Watson - Pickin' the Blues
DYEAR=1985
DGENRE=Blues
TTITLE0=Mississippi Heavy Water Blues
TTITLE1=Sittin' Here Pickin' the Blues
TTITLE2=Stormy Weather
TTITLE3=Windy and Warm
TTITLE4=St. Louis Blues
TTITLE5=Jailhouse Blues
TTITLE6=Freight Train Blues
TTITLE7=Hobo Bill's Last Ride
TTITLE8=Carroll County Blues
TTITLE9=Blue Ridge Mountain Blues
TTITLE10=I'm A Stranger Here
TTITLE11=Honey Babe Blues
EXTD=
EXTT0=
EXTT1=
EXTT2=
EXTT3=
EXTT4=
EXTT5=
EXTT6=
EXTT7=
EXTT8=
EXTT9=
EXTT10=
EXTT11=
PLAYORDER=
